<?xml version="1.0" encoding="UTF-8"?>
<svg id="Layer_1" xmlns="http://www.w3.org/2000/svg" version="1.1" viewBox="0 0 1130.6 727.6">
  <!-- Generator: Adobe Illustrator 30.5.1, SVG Export Plug-In . SVG Version: 2.1.4 Build 3)  -->
  <defs>
    <style>
      .st0 {
        fill: #fff;
        font-family: ArialMT, Arial;
        font-size: 16px;
      }

      .st0, .st1 {
        isolation: isolate;
      }

      .st2 {
        fill: none;
        stroke: #fff;
        stroke-linecap: round;
        stroke-miterlimit: 10;
        stroke-width: 13px;
      }
    </style>
  </defs>
  <path class="st2" d="M923.2,41.4s-43.3,169.6-54.1,191.3c-10.8,21.7-305.6,146.8-305.6,146.8,0,0-208.1,129.9-228.6,143.2-20.5,13.2-173.2,110.7-173.2,110.7-51.7,22.1-103.5,44.1-155.2,66.2"/>
  <path class="st2" d="M685,6.5s232.2,155.2,265.9,174.4,127.5,38.5,127.5,38.5c0,0,18-3.6,45.7,8.4"/>
  <path class="st2" d="M587.6,368.6s81.8,232.2,103.5,277.9,27.7,74.6,27.7,74.6"/>
  <path class="st2" d="M197.8,320.5s104.7,32.5,116.7,43.3,38.5,37.3,46.9,50.5,36.1,66.2,36.1,66.2"/>
  <path class="st2" d="M448,18.5s49.3,90.2,61.4,121.5c12,31.3,21.7,36.1,22.9,50.5s8.4,44.5,15.6,56.5c7.2,12,34.9,65,34.9,65l24.1,45.7"/>
  <g class="st1">
    <text class="st0" transform="translate(413 504.7) rotate(-30)"><tspan x="0" y="0">Freiburgstrasse</tspan></text>
  </g>
  <g class="st1">
    <text class="st0" transform="translate(714.2 340.6) rotate(-25)"><tspan x="0" y="0">Freiburgstrasse</tspan></text>
  </g>
  <g class="st1">
    <text class="st0" transform="translate(737.6 69) rotate(33)"><tspan x="0" y="0">Murtenstrasse</tspan></text>
  </g>
</svg>