<?xml version="1.0" encoding="UTF-8"?>
<svg id="Layer_1" xmlns="http://www.w3.org/2000/svg" version="1.1" viewBox="0 0 913.4 609.3">
  <!-- Generator: Adobe Illustrator 30.5.1, SVG Export Plug-In . SVG Version: 2.1.4 Build 3)  -->
  <defs>
    <style>
      .st0 {
        font-family: ArialMT, Arial;
        font-size: 17.7px;
      }

      .st0, .st1 {
        isolation: isolate;
      }

      .st0, .st2 {
        fill: #fff;
      }

      .st3 {
        fill: #c8102e;
      }

      .st4 {
        fill: none;
        stroke: #fff;
        stroke-linecap: round;
        stroke-miterlimit: 10;
        stroke-width: 13px;
      }
    </style>
  </defs>
  <path class="st4" d="M754.4,6.5s-42.5,166.6-53.1,187.9-300.2,144.2-300.2,144.2c0,0-204.4,127.6-224.5,140.6-20.1,13-170.1,108.7-170.1,108.7"/>
  <path class="st4" d="M572.9,7.1c69.4,46.2,185.9,123.3,208.8,136.4,33.1,18.9,125.2,37.8,125.2,37.8"/>
  <path class="st4" d="M424.8,329.8s80.3,228.1,101.7,272.9"/>
  <path class="st4" d="M42,280.6s102.8,31.9,114.6,42.5,37.8,36.6,46.1,49.6,35.5,65,35.5,65"/>
  <path class="st4" d="M319.5,43.8c11.8,22.8,23.5,46.4,28.5,59.5,11.8,30.7,21.3,35.5,22.5,49.6,1.2,14.1,8.3,43.7,15.3,55.5,7.1,11.8,34.3,63.8,34.3,63.8l23.7,44.9"/>
  <g class="st1">
    <g class="st1">
      <text class="st0" transform="translate(251.4 464.5) rotate(-30)"><tspan x="0" y="0">Freiburgstrasse</tspan></text>
    </g>
  </g>
  <g class="st1">
    <g class="st1">
      <text class="st0" transform="translate(547.2 303.3) rotate(-25)"><tspan x="0" y="0">Freiburgstrasse</tspan></text>
    </g>
  </g>
  <g class="st1">
    <g class="st1">
      <text class="st0" transform="translate(570.2 36.6) rotate(33)"><tspan x="0" y="0">Murtenstrasse</tspan></text>
    </g>
  </g>
  <g>
    <circle class="st3" cx="346.6" cy="440.5" r="9.8"/>
    <circle class="st2" cx="346.6" cy="440.5" r="4.4"/>
  </g>
</svg>